<svg xmlns="http://www.w3.org/2000/svg" version="1.1" xmlns:xlink="http://www.w3.org/1999/xlink" xmlns:svgjs="http://svgjs.com/svgjs" width="1440" height="560" preserveAspectRatio="none" viewBox="0 0 1440 560"><g mask="url(&quot;#SvgjsMask1019&quot;)" fill="none"><rect width="1440" height="560" x="0" y="0" fill="rgba(21, 67, 96, 1)"></rect><path d="M0,521.86C99.192,512.592,190.623,479.827,279.716,435.246C378.401,385.866,487.89,343.276,545.268,249.016C605.202,150.557,616.709,27.73,596.902,-85.822C577.413,-197.552,526.969,-310.088,435.943,-377.747C350.333,-441.38,226.385,-394.339,127.62,-434.634C11.195,-482.134,-60.871,-649.04,-185.344,-631.222C-305.16,-614.071,-358.007,-465.467,-412.386,-357.334C-457.535,-267.554,-460.093,-167.522,-468.878,-67.414C-477.164,27.011,-487.388,119.713,-462.27,211.112C-433.786,314.756,-404.658,430.889,-315.453,490.855C-225.953,551.019,-107.374,531.892,0,521.86" fill="#133d57"></path><path d="M1440 1160.7640000000001C1549.876 1140.665 1591.751 1002.656 1687.34 944.869 1787.174 884.5160000000001 1929.096 906.1600000000001 2006.105 818.531 2089.173 724.0070000000001 2126.6549999999997 588.395 2110.253 463.632 2093.784 338.358 2001.368 240.752 1917.699 146.072 1834.755 52.21300000000002 1752.589-65.31100000000004 1628.4-81.63099999999997 1505.471-97.78599999999994 1409.902 19.063999999999965 1294.409 64.16199999999998 1191.858 104.20600000000002 1075.222 101.132 988.0740000000001 168.404 889.951 244.147 798.058 342.562 775.784 464.5 753.269 587.757 804.269 713.471 868.9 820.813 929.143 920.867 1026.401 987.6759999999999 1126.758 1047.414 1224.145 1105.384 1328.515 1181.158 1440 1160.7640000000001" fill="#174969"></path></g><defs><mask id="SvgjsMask1019"><rect width="1440" height="560" fill="#ffffff"></rect></mask></defs></svg>